<svg xmlns="http://www.w3.org/2000/svg" width="1024" height="1024" viewBox="0 0 1024 1024" preserveAspectRatio="none">
<g id="skeleton-shapes">
<path id="path-1" d="M 436.29 485.90 Q 250.00 644.00 234.43 660.00 Q 218.86 676.00 210.21 688.50 Q 201.57 701.00 196.29 713.00 Q 191.00 725.00 188.43 735.50 Q 185.86 746.00 184.64 760.00 Q 183.43 774.00 184.21 790.00 Q 185.00 806.00 187.71 821.00 Q 190.43 836.00 194.29 848.00 Q 198.14 860.00 205.07 874.00 Q 212.00 888.00 218.29 897.00 Q 224.57 906.00 234.79 917.00 Q 245.00 928.00 259.00 938.50 Q 273.00 949.00 287.00 955.93 Q 301.00 962.86 315.50 967.14 Q 330.00 971.43 355.50 974.14 Q 381.00 976.86 439.00 975.43 Q 497.00 974.00 521.00 969.36 Q 545.00 964.71 570.50 954.50 Q 596.00 944.29 623.00 926.86 Q 650.00 909.43 686.07 880.29 Q 722.14 851.14 785.27 719.23 Q 722.14 851.14 848.40 587.33" fill="none" stroke="black" stroke-width="45" stroke-linecap="round" stroke-linejoin="round"/>
<path id="path-2" d="M 436.29 485.90 L 807.71 953.39" fill="none" stroke="black" stroke-width="45" stroke-linecap="round" stroke-linejoin="round"/>
<path id="path-3" d="M 436.29 485.90 Q 345.57 369.00 324.14 338.00 Q 302.71 307.00 297.36 295.50 Q 292.00 284.00 288.36 271.50 Q 284.71 259.00 283.00 243.50 Q 281.29 228.00 281.64 216.50 Q 282.00 205.00 284.64 191.00 Q 287.29 177.00 293.07 162.00 Q 298.86 147.00 307.21 133.50 Q 315.57 120.00 325.29 109.00 Q 335.00 98.00 348.50 87.50 Q 362.00 77.00 379.50 68.00 Q 397.00 59.00 413.00 54.36 Q 429.00 49.71 445.00 48.21 Q 461.00 46.71 479.00 48.21 Q 497.00 49.71 513.50 54.43 Q 530.00 59.14 548.50 68.57 Q 567.00 78.00 582.00 90.50 Q 597.00 103.00 608.43 118.00 Q 619.86 133.00 627.79 149.50 Q 635.71 166.00 639.86 184.50 Q 644.00 203.00 644.00 221.00 Q 644.00 239.00 642.21 250.00 Q 640.43 261.00 636.21 274.00 Q 632.00 287.00 625.57 299.50 Q 619.14 312.00 612.71 321.00 Q 606.29 330.00 577.14 359.50 Q 548.00 389.00 510.00 423.00 Q 472.00 457.00 455.00 470.50 Q 472.00 457.00 438.00 484.00" fill="none" stroke="black" stroke-width="45" stroke-linecap="round" stroke-linejoin="round"/>
</g>
</svg>
