<svg xmlns="http://www.w3.org/2000/svg" width="1024" height="1024" viewBox="0 0 1024 1024" preserveAspectRatio="none">
<g id="skeleton-shapes">
<path id="path-1" d="M 270.00 546.00 Q 256.71 525.00 253.36 512.50 Q 250.00 500.00 252.00 450.00 Q 254.00 400.00 257.86 369.50 Q 261.71 339.00 265.64 319.50 Q 269.57 300.00 277.79 273.00 Q 286.00 246.00 295.86 224.50 Q 305.71 203.00 319.14 182.50 Q 332.57 162.00 348.79 144.50 Q 365.00 127.00 385.00 111.64 Q 405.00 96.29 431.00 82.00 Q 457.00 67.71 481.50 59.64 Q 506.00 51.57 528.50 49.07 Q 551.00 46.57 560.00 46.79 Q 569.00 47.00 583.50 49.29 Q 598.00 51.57 621.00 59.64 Q 644.00 67.71 664.50 80.14 Q 685.00 92.57 703.42 108.36 Q 721.83 124.14 737.64 142.38 Q 721.83 124.14 753.44 160.62" fill="none" stroke="black" stroke-width="45" stroke-linecap="round" stroke-linejoin="round"/>
<path id="path-2" d="M 270.00 546.00 Q 261.86 582.00 256.93 617.50 Q 252.00 653.00 252.50 666.00 Q 253.00 679.00 260.29 731.00 Q 267.57 783.00 276.36 809.00 Q 285.14 835.00 293.57 851.50 Q 302.00 868.00 316.50 886.50 Q 331.00 905.00 341.50 914.14 Q 352.00 923.29 370.50 934.79 Q 389.00 946.29 403.00 952.14 Q 417.00 958.00 429.50 961.71 Q 442.00 965.43 471.00 970.21 Q 500.00 975.00 528.50 975.50 Q 557.00 976.00 577.00 972.79 Q 597.00 969.57 618.00 961.93 Q 639.00 954.29 657.50 942.36 Q 676.00 930.43 688.00 919.21 Q 700.00 908.00 707.14 899.50 Q 714.29 891.00 722.57 879.00 Q 730.86 867.00 739.57 851.00 Q 748.29 835.00 758.50 808.00 Q 768.71 781.00 774.36 755.50 Q 780.00 730.00 780.50 699.00 Q 781.00 668.00 778.57 646.50 Q 776.14 625.00 772.79 608.00 Q 769.43 591.00 759.36 562.00 Q 749.29 533.00 742.07 519.50 Q 734.86 506.00 727.64 495.50 Q 720.43 485.00 709.21 472.50 Q 698.00 460.00 689.00 452.29 Q 680.00 444.57 667.00 436.14 Q 654.00 427.71 642.00 421.93 Q 630.00 416.14 619.00 412.21 Q 608.00 408.29 592.00 404.43 Q 576.00 400.57 557.00 398.29 Q 538.00 396.00 520.00 396.00 Q 502.00 396.00 480.50 399.29 Q 459.00 402.57 447.50 405.93 Q 436.00 409.29 423.50 414.50 Q 411.00 419.71 394.00 430.07 Q 377.00 440.43 364.00 451.36 Q 351.00 462.29 344.00 469.64 Q 337.00 477.00 317.00 502.50 Q 297.00 528.00 283.50 537.00 Q 297.00 528.00 270.00 546.00" fill="none" stroke="black" stroke-width="45" stroke-linecap="round" stroke-linejoin="round"/>
</g>
</svg>
