<svg xmlns="http://www.w3.org/2000/svg" width="1024" height="1024" viewBox="0 0 1024 1024" preserveAspectRatio="none">
<g id="skeleton-shapes">
<path id="path-1" d="M 264.00 824.00 Q 270.71 844.00 278.14 857.00 Q 285.57 870.00 292.29 878.50 Q 299.00 887.00 314.50 901.21 Q 330.00 915.43 344.00 925.14 Q 358.00 934.86 373.50 943.14 Q 389.00 951.43 407.50 958.71 Q 426.00 966.00 444.50 970.64 Q 463.00 975.29 477.00 977.14 Q 491.00 979.00 507.00 979.43 Q 523.00 979.86 542.50 977.57 Q 562.00 975.29 576.50 971.50 Q 591.00 967.71 605.00 962.14 Q 619.00 956.57 631.50 949.79 Q 644.00 943.00 656.50 934.21 Q 669.00 925.43 683.74 912.14 Q 698.49 898.86 711.46 882.93 Q 724.43 867.00 730.36 857.50 Q 736.29 848.00 744.36 826.00 Q 752.43 804.00 755.71 784.00 Q 759.00 764.00 759.50 744.50 Q 760.00 725.00 758.57 709.50 Q 757.14 694.00 754.43 680.50 Q 751.71 667.00 747.57 655.50 Q 743.43 644.00 737.64 633.50 Q 731.86 623.00 718.43 606.79 Q 705.00 590.57 694.50 581.57 Q 684.00 572.57 674.00 565.79 Q 664.00 559.00 638.00 545.50 Q 612.00 532.00 605.50 527.00 Q 599.00 522.00 592.26 514.82 Q 599.00 522.00 585.51 507.65" fill="none" stroke="black" stroke-width="45" stroke-linecap="round" stroke-linejoin="round"/>
<path id="path-2" d="M 287.00 173.00 Q 293.29 158.00 300.43 147.00 Q 307.57 136.00 316.29 126.00 Q 325.00 116.00 336.00 106.79 Q 347.00 97.57 358.00 90.29 Q 369.00 83.00 382.00 76.29 Q 395.00 69.57 408.00 64.43 Q 421.00 59.29 440.50 54.00 Q 460.00 48.71 477.00 46.36 Q 494.00 44.00 507.50 43.64 Q 521.00 43.29 535.50 44.14 Q 550.00 45.00 565.50 47.79 Q 581.00 50.57 593.50 54.36 Q 606.00 58.14 621.50 65.29 Q 637.00 72.43 656.08 86.51 Q 675.15 100.59 689.93 118.29 Q 704.71 136.00 715.29 157.00 Q 725.86 178.00 732.07 200.00 Q 738.29 222.00 741.57 248.50 Q 744.86 275.00 743.50 299.50 Q 742.14 324.00 736.93 344.50 Q 731.71 365.00 723.36 382.00 Q 715.00 399.00 701.36 415.91 Q 687.73 432.82 671.36 445.91 Q 655.00 459.00 632.00 471.79 Q 609.00 484.57 597.26 496.11 Q 609.00 484.57 585.51 507.65" fill="none" stroke="black" stroke-width="45" stroke-linecap="round" stroke-linejoin="round"/>
<path id="path-3" d="M 506.00 508.09 L 585.51 507.65" fill="none" stroke="black" stroke-width="45" stroke-linecap="round" stroke-linejoin="round"/>
</g>
</svg>
